<svg viewBox="0 0 24 20" xmlns="http://www.w3.org/2000/svg">
<path d="M3.75 15H0.75C0.551088 15 0.360322 15.079 0.21967 15.2197C0.0790176 15.3603 0 15.5511 0 15.75L0 18.75C0 18.9489 0.0790176 19.1397 0.21967 19.2803C0.360322 19.421 0.551088 19.5 0.75 19.5H3.75C3.94891 19.5 4.13968 19.421 4.28033 19.2803C4.42098 19.1397 4.5 18.9489 4.5 18.75V15.75C4.5 15.5511 4.42098 15.3603 4.28033 15.2197C4.13968 15.079 3.94891 15 3.75 15ZM3.75 0H0.75C0.551088 0 0.360322 0.0790176 0.21967 0.21967C0.0790176 0.360322 0 0.551088 0 0.75L0 3.75C0 3.94891 0.0790176 4.13968 0.21967 4.28033C0.360322 4.42098 0.551088 4.5 0.75 4.5H3.75C3.94891 4.5 4.13968 4.42098 4.28033 4.28033C4.42098 4.13968 4.5 3.94891 4.5 3.75V0.75C4.5 0.551088 4.42098 0.360322 4.28033 0.21967C4.13968 0.0790176 3.94891 0 3.75 0ZM3.75 7.5H0.75C0.551088 7.5 0.360322 7.57902 0.21967 7.71967C0.0790176 7.86032 0 8.05109 0 8.25L0 11.25C0 11.4489 0.0790176 11.6397 0.21967 11.7803C0.360322 11.921 0.551088 12 0.75 12H3.75C3.94891 12 4.13968 11.921 4.28033 11.7803C4.42098 11.6397 4.5 11.4489 4.5 11.25V8.25C4.5 8.05109 4.42098 7.86032 4.28033 7.71967C4.13968 7.57902 3.94891 7.5 3.75 7.5ZM23.25 15.75H8.25C8.05109 15.75 7.86032 15.829 7.71967 15.9697C7.57902 16.1103 7.5 16.3011 7.5 16.5V18C7.5 18.1989 7.57902 18.3897 7.71967 18.5303C7.86032 18.671 8.05109 18.75 8.25 18.75H23.25C23.4489 18.75 23.6397 18.671 23.7803 18.5303C23.921 18.3897 24 18.1989 24 18V16.5C24 16.3011 23.921 16.1103 23.7803 15.9697C23.6397 15.829 23.4489 15.75 23.25 15.75ZM23.25 0.75H8.25C8.05109 0.75 7.86032 0.829018 7.71967 0.96967C7.57902 1.11032 7.5 1.30109 7.5 1.5V3C7.5 3.19891 7.57902 3.38968 7.71967 3.53033C7.86032 3.67098 8.05109 3.75 8.25 3.75H23.25C23.4489 3.75 23.6397 3.67098 23.7803 3.53033C23.921 3.38968 24 3.19891 24 3V1.5C24 1.30109 23.921 1.11032 23.7803 0.96967C23.6397 0.829018 23.4489 0.75 23.25 0.75ZM23.25 8.25H8.25C8.05109 8.25 7.86032 8.32902 7.71967 8.46967C7.57902 8.61032 7.5 8.80109 7.5 9V10.5C7.5 10.6989 7.57902 10.8897 7.71967 11.0303C7.86032 11.171 8.05109 11.25 8.25 11.25H23.25C23.4489 11.25 23.6397 11.171 23.7803 11.0303C23.921 10.8897 24 10.6989 24 10.5V9C24 8.80109 23.921 8.61032 23.7803 8.46967C23.6397 8.32902 23.4489 8.25 23.25 8.25Z" />
</svg>
